<svg width="16" height="16" viewBox="0 0 16 16" fill="none" xmlns="http://www.w3.org/2000/svg">
<path d="M7.99484 12.9955C10.8425 12.9955 13.1929 10.6451 13.1929 7.80246C13.1929 4.95982 10.8375 2.60938 7.98982 2.60938C5.14718 2.60938 2.80176 4.95982 2.80176 7.80246C2.80176 10.6451 5.1522 12.9955 7.99484 12.9955ZM4.9714 4.65346C5.46861 4.17634 6.08133 3.80971 6.75935 3.60379C6.40276 3.96038 6.10142 4.46763 5.87542 5.08036C5.52386 4.96987 5.21749 4.82422 4.9714 4.65346ZM9.23535 3.60882C9.91336 3.81473 10.5211 4.17634 11.0183 4.65848C10.7722 4.82924 10.4708 4.96987 10.1193 5.08538C9.89328 4.46763 9.59194 3.9654 9.23535 3.60882ZM6.57352 5.25614C6.84975 4.51786 7.22642 3.97545 7.64328 3.77958V5.36663C7.26158 5.35156 6.90499 5.31641 6.57352 5.25614ZM8.3464 3.77958C8.76325 3.97545 9.14495 4.51786 9.41615 5.25614C9.0897 5.31641 8.7281 5.35156 8.3464 5.36663V3.77958ZM3.63044 7.45089C3.70075 6.60212 4.01716 5.81864 4.50935 5.17578C4.81069 5.40179 5.20745 5.59766 5.6695 5.7433C5.53892 6.2606 5.45857 6.83817 5.43345 7.45089H3.63044ZM10.5562 7.45089C10.5361 6.83817 10.4508 6.2606 10.3202 5.7433C10.7822 5.59766 11.179 5.40179 11.4803 5.17578C11.9725 5.81864 12.2889 6.60212 12.3592 7.45089H10.5562ZM8.3464 7.45089V6.06975C8.79339 6.05469 9.22531 6.00446 9.62207 5.92411C9.73758 6.39118 9.81794 6.90848 9.83803 7.45089H8.3464ZM6.15165 7.45089C6.17676 6.90848 6.25209 6.39118 6.36761 5.92411C6.76939 6.00446 7.19629 6.05469 7.64328 6.06975V7.45089H6.15165ZM3.63044 8.15402H5.43345C5.45354 8.77679 5.53892 9.35938 5.67453 9.88672C5.21749 10.0324 4.82073 10.2232 4.51939 10.4442C4.02218 9.79632 3.70075 9.00781 3.63044 8.15402ZM6.15165 8.15402H7.64328V9.56027C7.20131 9.57534 6.76939 9.62556 6.37263 9.70592C6.25209 9.2288 6.17676 8.70145 6.15165 8.15402ZM8.3464 9.56027V8.15402H9.84305C9.81794 8.70145 9.73758 9.2288 9.61705 9.70592C9.22028 9.62556 8.79339 9.57534 8.3464 9.56027ZM10.3202 9.88672C10.4508 9.35938 10.5361 8.77679 10.5612 8.15402H12.3592C12.2889 9.00781 11.9675 9.79632 11.4703 10.4442C11.1689 10.2232 10.7772 10.0324 10.3202 9.88672ZM8.3464 10.2634C8.7281 10.2785 9.07966 10.3136 9.41113 10.3739C9.13993 11.0971 8.76325 11.6345 8.3464 11.8304V10.2634ZM6.58357 10.3739C6.91002 10.3136 7.2666 10.2785 7.64328 10.2634V11.8304C7.23144 11.6345 6.85477 11.0971 6.58357 10.3739ZM4.98647 10.9615C5.23256 10.7958 5.5339 10.6551 5.88044 10.5446C6.10142 11.1473 6.40276 11.6445 6.7493 11.9961C6.08133 11.7952 5.47865 11.4336 4.98647 10.9615ZM10.1143 10.5446C10.4608 10.6551 10.7621 10.7958 11.0082 10.9615C10.511 11.4336 9.90834 11.7952 9.24037 11.9961C9.59194 11.6445 9.88825 11.1473 10.1143 10.5446Z" fill="black" fill-opacity="0.65"/>
</svg>
